<?xml version="1.0" encoding="UTF-8"?>
<!DOCTYPE svg PUBLIC "-//W3C//DTD SVG 1.1//EN" "http://www.w3.org/Graphics/SVG/1.1/DTD/svg11.dtd">
<svg xmlns="http://www.w3.org/2000/svg" version="1.1" width="612px" height="407px" style="shape-rendering:geometricPrecision; text-rendering:geometricPrecision; image-rendering:optimizeQuality; fill-rule:evenodd; clip-rule:evenodd" xmlns:xlink="http://www.w3.org/1999/xlink">
<g><path style="opacity:0.004" fill="#000000" d="M 2.5,7.5 C 3.83333,8.16667 3.83333,8.16667 2.5,7.5 Z"/></g>
<g><path style="opacity:0.004" fill="#000000" d="M 299.5,11.5 C 300.833,12.1667 300.833,12.1667 299.5,11.5 Z"/></g>
<g><path style="opacity:0.004" fill="#000000" d="M 569.5,12.5 C 570.833,13.1667 570.833,13.1667 569.5,12.5 Z"/></g>
<g><path style="opacity:0.004" fill="#000000" d="M 464.5,22.5 C 465.833,23.1667 465.833,23.1667 464.5,22.5 Z"/></g>
<g><path style="opacity:0.004" fill="#000000" d="M 14.5,31.5 C 15.8333,32.1667 15.8333,32.1667 14.5,31.5 Z"/></g>
<g><path style="opacity:0.004" fill="#000000" d="M 23.5,53.5 C 24.8333,54.1667 24.8333,54.1667 23.5,53.5 Z"/></g>
<g><path style="opacity:0.004" fill="#000000" d="M 29.5,63.5 C 30.8333,64.1667 30.8333,64.1667 29.5,63.5 Z"/></g>
<g><path style="opacity:0.004" fill="#000000" d="M 548.5,77.5 C 549.833,78.1667 549.833,78.1667 548.5,77.5 Z"/></g>
<g><path style="opacity:0.004" fill="#000000" d="M 311.5,95.5 C 312.833,96.1667 312.833,96.1667 311.5,95.5 Z"/></g>
<g><path style="opacity:0.998" fill="#fbfafa" d="M 320.5,114.5 C 322.768,119.475 324.935,124.475 327,129.5C 327.667,158.833 327.667,188.167 327,217.5C 313.064,239.703 299.898,262.369 287.5,285.5C 286.5,285.5 285.5,285.5 284.5,285.5C 284.993,283.194 285.326,280.861 285.5,278.5C 286.358,275.95 287.358,273.45 288.5,271C 271.462,270.911 254.462,270.244 237.5,269C 222.051,264.549 212.885,254.382 210,238.5C 209.333,202.5 209.333,166.5 210,130.5C 213.396,114.104 223.229,103.938 239.5,100C 258.833,98 278.167,98 297.5,100C 306.88,102.344 314.547,107.177 320.5,114.5 Z M 292.5,142.5 C 292.5,164.833 292.5,187.167 292.5,209.5C 288.818,209.335 285.152,209.501 281.5,210C 280.584,210.278 279.918,210.778 279.5,211.5C 278.378,213.288 278.211,215.288 279,217.5C 282.248,223.664 285.748,229.664 289.5,235.5C 289.023,236.478 288.357,237.311 287.5,238C 283.731,239.101 279.897,239.934 276,240.5C 267.857,239.743 259.69,239.243 251.5,239C 248.123,237.368 245.79,234.868 244.5,231.5C 244.189,199.469 244.522,167.469 245.5,135.5C 247.224,132.458 249.891,130.625 253.5,130C 263.167,129.333 272.833,129.333 282.5,130C 289.493,131.123 292.827,135.289 292.5,142.5 Z"/></g>
<g><path style="opacity:0.004" fill="#000000" d="M 479.5,99.5 C 480.833,100.167 480.833,100.167 479.5,99.5 Z"/></g>
<g><path style="opacity:0.004" fill="#000000" d="M 14.5,101.5 C 15.8333,102.167 15.8333,102.167 14.5,101.5 Z"/></g>
<g><path style="opacity:0.004" fill="#000000" d="M 26.5,105.5 C 27.8333,106.167 27.8333,106.167 26.5,105.5 Z"/></g>
<g><path style="opacity:0.004" fill="#000000" d="M 47.5,107.5 C 48.8333,108.167 48.8333,108.167 47.5,107.5 Z"/></g>
<g><path style="opacity:0.004" fill="#000000" d="M 320.5,113.5 C 321.833,114.167 321.833,114.167 320.5,113.5 Z"/></g>
<g><path style="opacity:0.966" fill="#cbc9ca" d="M 386.5,133.5 C 386.966,131.799 386.966,130.299 386.5,129C 389.189,126.244 388.856,125.078 385.5,125.5C 389.764,117.144 394.43,108.977 399.5,101C 400.167,100.333 400.833,100.333 401.5,101C 397.11,112.269 392.11,123.103 386.5,133.5 Z"/></g>
<g><path style="opacity:0.004" fill="#000000" d="M 188.5,114.5 C 189.833,115.167 189.833,115.167 188.5,114.5 Z"/></g>
<g><path style="opacity:0.004" fill="#000000" d="M 5.5,123.5 C 6.83333,124.167 6.83333,124.167 5.5,123.5 Z"/></g>
<g><path style="opacity:0.998" fill="#f8f8f8" d="M 386.5,133.5 C 389.393,135.265 392.726,136.432 396.5,137C 397.126,137.75 397.626,138.584 398,139.5C 398.667,182.5 398.667,225.5 398,268.5C 395.918,291.581 383.418,304.414 360.5,307C 346.134,307.782 331.801,307.616 317.5,306.5C 315.095,305.232 312.428,304.565 309.5,304.5C 307.142,304.747 305.142,304.081 303.5,302.5C 303.027,301.094 302.027,300.427 300.5,300.5C 297.462,298.888 294.629,296.888 292,294.5C 290.699,292.635 290.365,290.635 291,288.5C 298.094,275.306 305.427,262.306 313,249.5C 314.041,247.415 315.541,245.748 317.5,244.5C 318.332,252.479 318.832,260.479 319,268.5C 320.935,274.395 325.101,277.229 331.5,277C 339.189,277.647 346.856,277.48 354.5,276.5C 359.5,276.167 362.167,273.5 362.5,268.5C 363.307,232.856 363.807,197.189 364,161.5C 370.92,149.322 378.087,137.322 385.5,125.5C 388.856,125.078 389.189,126.244 386.5,129C 386.966,130.299 386.966,131.799 386.5,133.5 Z"/></g>
<g><path style="opacity:0.004" fill="#000000" d="M 533.5,126.5 C 534.833,127.167 534.833,127.167 533.5,126.5 Z"/></g>
<g><path style="opacity:0.004" fill="#000000" d="M 8.5,129.5 C 9.83333,130.167 9.83333,130.167 8.5,129.5 Z"/></g>
<g><path style="opacity:0.004" fill="#000000" d="M 74.5,133.5 C 75.8333,134.167 75.8333,134.167 74.5,133.5 Z"/></g>
<g><path style="opacity:0.004" fill="#000000" d="M 527.5,134.5 C 528.833,135.167 528.833,135.167 527.5,134.5 Z"/></g>
<g><path style="opacity:0.004" fill="#000000" d="M 137.5,151.5 C 138.833,152.167 138.833,152.167 137.5,151.5 Z"/></g>
<g><path style="opacity:0.086" fill="#959495" d="M 292.5,142.5 C 293.497,164.994 293.831,187.661 293.5,210.5C 288.819,210.669 284.152,211.002 279.5,211.5C 279.918,210.778 280.584,210.278 281.5,210C 285.152,209.501 288.818,209.335 292.5,209.5C 292.5,187.167 292.5,164.833 292.5,142.5 Z"/></g>
<g><path style="opacity:0.004" fill="#000000" d="M 434.5,158.5 C 435.833,159.167 435.833,159.167 434.5,158.5 Z"/></g>
<g><path style="opacity:0.1" fill="#cfcccd" d="M 245.5,135.5 C 244.522,167.469 244.189,199.469 244.5,231.5C 243.336,200.003 243.169,168.336 244,136.5C 244.383,135.944 244.883,135.611 245.5,135.5 Z"/></g>
<g><path style="opacity:0.004" fill="#000000" d="M 98.5,164.5 C 99.8333,165.167 99.8333,165.167 98.5,164.5 Z"/></g>
<g><path style="opacity:0.004" fill="#000000" d="M 452.5,184.5 C 453.833,185.167 453.833,185.167 452.5,184.5 Z"/></g>
<g><path style="opacity:0.004" fill="#000000" d="M 347.5,201.5 C 348.833,202.167 348.833,202.167 347.5,201.5 Z"/></g>
<g><path style="opacity:0.004" fill="#000000" d="M 161.5,212.5 C 162.833,213.167 162.833,213.167 161.5,212.5 Z"/></g>
<g><path style="opacity:0.004" fill="#000000" d="M 536.5,222.5 C 537.833,223.167 537.833,223.167 536.5,222.5 Z"/></g>
<g><path style="opacity:0.004" fill="#000000" d="M 164.5,230.5 C 165.833,231.167 165.833,231.167 164.5,230.5 Z"/></g>
<g><path style="opacity:0.004" fill="#000000" d="M 518.5,230.5 C 519.833,231.167 519.833,231.167 518.5,230.5 Z"/></g>
<g><path style="opacity:0.004" fill="#000000" d="M 326.5,231.5 C 327.833,232.167 327.833,232.167 326.5,231.5 Z"/></g>
<g><path style="opacity:0.004" fill="#000000" d="M 56.5,237.5 C 57.8333,238.167 57.8333,238.167 56.5,237.5 Z"/></g>
<g><path style="opacity:0.004" fill="#000000" d="M 482.5,243.5 C 483.833,244.167 483.833,244.167 482.5,243.5 Z"/></g>
<g><path style="opacity:0.004" fill="#000000" d="M 14.5,248.5 C 15.8333,249.167 15.8333,249.167 14.5,248.5 Z"/></g>
<g><path style="opacity:0.004" fill="#000000" d="M 551.5,260.5 C 552.833,261.167 552.833,261.167 551.5,260.5 Z"/></g>
<g><path style="opacity:0.004" fill="#000000" d="M 149.5,267.5 C 150.833,268.167 150.833,268.167 149.5,267.5 Z"/></g>
<g><path style="opacity:0.325" fill="#a6a5a5" d="M 362.5,268.5 C 362.167,273.5 359.5,276.167 354.5,276.5C 358.167,274.833 360.833,272.167 362.5,268.5 Z"/></g>
<g><path style="opacity:0.004" fill="#000000" d="M 8.5,283.5 C 9.83333,284.167 9.83333,284.167 8.5,283.5 Z"/></g>
<g><path style="opacity:0.647" fill="#c4c2c1" d="M 285.5,278.5 C 285.326,280.861 284.993,283.194 284.5,285.5C 285.5,285.5 286.5,285.5 287.5,285.5C 283.536,292.297 279.369,298.963 275,305.5C 277.601,296.204 281.101,287.204 285.5,278.5 Z"/></g>
<g><path style="opacity:0.004" fill="#000000" d="M 203.5,301.5 C 204.833,302.167 204.833,302.167 203.5,301.5 Z"/></g>
<g><path style="opacity:0.063" fill="#595858" d="M 300.5,300.5 C 302.027,300.427 303.027,301.094 303.5,302.5C 301.973,302.573 300.973,301.906 300.5,300.5 Z"/></g>
<g><path style="opacity:0.537" fill="#939292" d="M 309.5,304.5 C 312.428,304.565 315.095,305.232 317.5,306.5C 314.505,306.706 311.838,306.04 309.5,304.5 Z"/></g>
<g><path style="opacity:0.004" fill="#000000" d="M 227.5,307.5 C 228.833,308.167 228.833,308.167 227.5,307.5 Z"/></g>
<g><path style="opacity:0.004" fill="#000000" d="M 26.5,316.5 C 27.8333,317.167 27.8333,317.167 26.5,316.5 Z"/></g>
<g><path style="opacity:0.004" fill="#000000" d="M 554.5,318.5 C 555.833,319.167 555.833,319.167 554.5,318.5 Z"/></g>
<g><path style="opacity:0.004" fill="#000000" d="M 302.5,321.5 C 303.833,322.167 303.833,322.167 302.5,321.5 Z"/></g>
<g><path style="opacity:0.004" fill="#000000" d="M 593.5,322.5 C 594.833,323.167 594.833,323.167 593.5,322.5 Z"/></g>
<g><path style="opacity:0.004" fill="#000000" d="M 275.5,333.5 C 276.833,334.167 276.833,334.167 275.5,333.5 Z"/></g>
<g><path style="opacity:0.004" fill="#000000" d="M 56.5,339.5 C 57.8333,340.167 57.8333,340.167 56.5,339.5 Z"/></g>
<g><path style="opacity:0.004" fill="#000000" d="M 344.5,345.5 C 345.833,346.167 345.833,346.167 344.5,345.5 Z"/></g>
<g><path style="opacity:0.004" fill="#000000" d="M 581.5,348.5 C 582.833,349.167 582.833,349.167 581.5,348.5 Z"/></g>
<g><path style="opacity:0.004" fill="#000000" d="M 242.5,372.5 C 243.833,373.167 243.833,373.167 242.5,372.5 Z"/></g>
<g><path style="opacity:0.004" fill="#000000" d="M 392.5,373.5 C 393.833,374.167 393.833,374.167 392.5,373.5 Z"/></g>
<g><path style="opacity:0.004" fill="#000000" d="M 23.5,385.5 C 24.8333,386.167 24.8333,386.167 23.5,385.5 Z"/></g>
<g><path style="opacity:0.004" fill="#000000" d="M 527.5,385.5 C 528.833,386.167 528.833,386.167 527.5,385.5 Z"/></g>
<g><path style="opacity:0.004" fill="#000000" d="M 128.5,390.5 C 129.833,391.167 129.833,391.167 128.5,390.5 Z"/></g>
<g><path style="opacity:0.004" fill="#000000" d="M 59.5,391.5 C 60.8333,392.167 60.8333,392.167 59.5,391.5 Z"/></g>
<g><path style="opacity:0.004" fill="#000000" d="M 398.5,393.5 C 399.833,394.167 399.833,394.167 398.5,393.5 Z"/></g>
<g><path style="opacity:0.004" fill="#000000" d="M 335.5,398.5 C 336.833,399.167 336.833,399.167 335.5,398.5 Z"/></g>
<g><path style="opacity:0.004" fill="#000000" d="M 167.5,402.5 C 168.833,403.167 168.833,403.167 167.5,402.5 Z"/></g>
<g><path style="opacity:0.004" fill="#000000" d="M 575.5,403.5 C 576.833,404.167 576.833,404.167 575.5,403.5 Z"/></g>
<g><path style="opacity:0.004" fill="#000000" d="M 83.5,404.5 C 84.8333,405.167 84.8333,405.167 83.5,404.5 Z"/></g>
</svg>
